ffmpeg started on 2025-04-30 at 17:40:04
Report written to "D:\Convert\FFMetrics\reports\ssim_report-6.txt"
Log level: 32
Command line:
ffmpeg -hide_banner -nostdin -i "G:\\\xc0\xed\xe8\xec\xe5\\\xce\xed\xe3\xee\xe8\xed\xe3\xe8\\!_37_\xc7\xe8\xec\xe0_2025\\JamClub\\\xcf\xee\xe4\xed\xff\xf2\xe8\xe5 \xf3\xf0\xee\xe2\xed\xff \xe2 \xee\xe4\xe8\xed\xee\xf7\xea\xf3\\\xd2\xc2-2\\JamClub_Ore_dake_Level_Up_na_Ken_Season_2_08_1080p_HEVC.mkv" -i "G:\\\xc0\xed\xe8\xec\xe5\\\xce\xed\xe3\xee\xe8\xed\xe3\xe8\\!_37_\xc7\xe8\xec\xe0_2025\\JamClub\\\xcf\xee\xe4\xed\xff\xf2\xe8\xe5 \xf3\xf0\xee\xe2\xed\xff \xe2 \xee\xe4\xe8\xed\xee\xf7\xea\xf3\\\xd2\xc2-2\\JamClub_Ore_dake_Level_Up_na_Ken_Season_2_08_1080p.mp4" -lavfi "[0:v]settb=AVTB,setpts=PTS-STARTPTS,format=pix_fmts=yuv420p10,fps=24000/1001,scale=1920:1080:flags=bicubic[main];[1:v]settb=AVTB,setpts=PTS-STARTPTS,format=pix_fmts=yuv420p,fps=24000/1001,scale=1920:1080:flags=bicubic[ref];[main][ref]ssim=eof_action=endall:stats_file='D\\:/Convert/FFMetrics/logs/ssim_logfile-6.txt'" -f null -
Input #0, matroska,webm, from 'G:\Аниме\Онгоинги\!_37_Зима_2025\JamClub\Поднятие уровня в одиночку\ТВ-2\JamClub_Ore_dake_Level_Up_na_Ken_Season_2_08_1080p_HEVC.mkv':
  Metadata:
    COMPATIBLE_BRANDS: isomiso2avc1mp41
    MAJOR_BRAND     : isom
    MINOR_VERSION   : 512
    ENCODER         : Lavf61.7.100
  Duration: 00:24:02.37, start: -0.001000, bitrate: 1865 kb/s
  Stream #0:0: Video: hevc (Main 10), yuv420p10le(tv, bt709, progressive), 1920x1080 [SAR 1:1 DAR 16:9], 23.98 fps, 23.98 tbr, 1k tbn (default)
      Metadata:
        HANDLER_NAME    : VideoHandler
        VENDOR_ID       : [0][0][0][0]
        ENCODER         : Lavc61.19.100 libx265
        BPS             : 1667526
        DURATION        : 00:24:02.232708333
        NUMBER_OF_FRAMES: 34579
        NUMBER_OF_BYTES : 300620025
        _STATISTICS_WRITING_APP: mkvpropedit v66.0.0 ('Josie') 64-bit
        _STATISTICS_WRITING_DATE_UTC: 2025-04-30 09:07:35
        _STATISTICS_TAGS: BPS DURATION NUMBER_OF_FRAMES NUMBER_OF_BYTES
  Stream #0:1(eng): Audio: aac (LC), 48000 Hz, stereo, fltp (default)
      Metadata:
        HANDLER_NAME    : SoundHandler
        VENDOR_ID       : [0][0][0][0]
        ENCODER         : Lavc61.19.100 aac
        BPS             : 194471
        DURATION        : 00:24:02.328000000
        NUMBER_OF_FRAMES: 67610
        NUMBER_OF_BYTES : 35061491
        _STATISTICS_WRITING_APP: mkvpropedit v66.0.0 ('Josie') 64-bit
        _STATISTICS_WRITING_DATE_UTC: 2025-04-30 09:07:35
        _STATISTICS_TAGS: BPS DURATION NUMBER_OF_FRAMES NUMBER_OF_BYTES
Input #1, mov,mp4,m4a,3gp,3g2,mj2, from 'G:\Аниме\Онгоинги\!_37_Зима_2025\JamClub\Поднятие уровня в одиночку\ТВ-2\JamClub_Ore_dake_Level_Up_na_Ken_Season_2_08_1080p.mp4':
  Metadata:
    major_brand     : isom
    minor_version   : 512
    compatible_brands: isomiso2avc1mp41
    encoder         : Lavf60.16.100
  Duration: 00:24:02.35, start: 0.000000, bitrate: 5289 kb/s
  Stream #1:0[0x1](und): Video: h264 (High) (avc1 / 0x31637661), yuv420p(progressive), 1920x1080 [SAR 1:1 DAR 16:9], 5092 kb/s, 23.98 fps, 23.98 tbr, 90k tbn (default)
      Metadata:
        handler_name    : VideoHandler
        vendor_id       : [0][0][0][0]
  Stream #1:1[0x2](eng): Audio: aac (LC) (mp4a / 0x6134706D), 48000 Hz, stereo, fltp, 191 kb/s (default)
      Metadata:
        handler_name    : SoundHandler
        vendor_id       : [0][0][0][0]
Stream mapping:
  Stream #0:0 (hevc) -> settb:default
  Stream #1:0 (h264) -> settb:default
  ssim:default -> Stream #0:0 (wrapped_avframe)
  Stream #0:1 -> #0:1 (aac (native) -> pcm_s16le (native))
Output #0, null, to 'pipe:':
  Metadata:
    COMPATIBLE_BRANDS: isomiso2avc1mp41
    MAJOR_BRAND     : isom
    MINOR_VERSION   : 512
    encoder         : Lavf61.7.100
  Stream #0:0: Video: wrapped_avframe, yuv420p10le(tv, bt709, progressive), 1920x1080 [SAR 1:1 DAR 16:9], q=2-31, 200 kb/s, 23.98 fps, 23.98 tbn
      Metadata:
        encoder         : Lavc61.19.100 wrapped_avframe
  Stream #0:1(eng): Audio: pcm_s16le, 48000 Hz, stereo, s16, 1536 kb/s (default)
      Metadata:
        HANDLER_NAME    : SoundHandler
        VENDOR_ID       : [0][0][0][0]
        _STATISTICS_TAGS: BPS DURATION NUMBER_OF_FRAMES NUMBER_OF_BYTES
        BPS             : 194471
        DURATION        : 00:24:02.328000000
        NUMBER_OF_FRAMES: 67610
        NUMBER_OF_BYTES : 35061491
        _STATISTICS_WRITING_APP: mkvpropedit v66.0.0 ('Josie') 64-bit
        _STATISTICS_WRITING_DATE_UTC: 2025-04-30 09:07:35
        encoder         : Lavc61.19.100 pcm_s16le
frame=  103 fps=0.0 q=-0.0 size=N/A time=00:00:04.29 bitrate=N/A speed=8.45x    frame=  263 fps=255 q=-0.0 size=N/A time=00:00:10.96 bitrate=N/A speed=10.6x    frame=  444 fps=288 q=-0.0 size=N/A time=00:00:18.51 bitrate=N/A speed=  12x    frame=  653 fps=317 q=-0.0 size=N/A time=00:00:27.23 bitrate=N/A speed=13.2x    frame=  879 fps=342 q=-0.0 size=N/A time=00:00:36.66 bitrate=N/A speed=14.3x    frame= 1107 fps=358 q=-0.0 size=N/A time=00:00:46.17 bitrate=N/A speed=14.9x    frame= 1304 fps=362 q=-0.0 size=N/A time=00:00:54.38 bitrate=N/A speed=15.1x    frame= 1494 fps=362 q=-0.0 size=N/A time=00:01:02.31 bitrate=N/A speed=15.1x    frame= 1687 fps=365 q=-0.0 size=N/A time=00:01:10.36 bitrate=N/A speed=15.2x    frame= 1896 fps=368 q=-0.0 size=N/A time=00:01:19.07 bitrate=N/A speed=15.3x    frame= 2086 fps=368 q=-0.0 size=N/A time=00:01:27.00 bitrate=N/A speed=15.4x    frame= 2246 fps=363 q=-0.0 size=N/A time=00:01:33.67 bitrate=N/A speed=15.2x    frame= 2420 fps=362 q=-0.0 size=N/A time=00:01:40.93 bitrate=N/A speed=15.1x    frame= 2603 fps=361 q=-0.0 size=N/A time=00:01:48.56 bitrate=N/A speed=  15x    frame= 2778 fps=359 q=-0.0 size=N/A time=00:01:55.86 bitrate=N/A speed=  15x    frame= 2952 fps=358 q=-0.0 size=N/A time=00:02:03.12 bitrate=N/A speed=14.9x    frame= 3109 fps=355 q=-0.0 size=N/A time=00:02:09.67 bitrate=N/A speed=14.8x    frame= 3260 fps=352 q=-0.0 size=N/A time=00:02:15.96 bitrate=N/A speed=14.7x    frame= 3464 fps=354 q=-0.0 size=N/A time=00:02:24.47 bitrate=N/A speed=14.8x    frame= 3674 fps=357 q=-0.0 size=N/A time=00:02:33.23 bitrate=N/A speed=14.9x    frame= 3889 fps=359 q=-0.0 size=N/A time=00:02:42.20 bitrate=N/A speed=  15x    frame= 4096 fps=361 q=-0.0 size=N/A time=00:02:50.83 bitrate=N/A speed=15.1x    frame= 4303 fps=363 q=-0.0 size=N/A time=00:02:59.47 bitrate=N/A speed=15.1x    frame= 4515 fps=365 q=-0.0 size=N/A time=00:03:08.31 bitrate=N/A speed=15.2x    frame= 4734 fps=367 q=-0.0 size=N/A time=00:03:17.44 bitrate=N/A speed=15.3x    frame= 4931 fps=368 q=-0.0 size=N/A time=00:03:25.66 bitrate=N/A speed=15.4x    frame= 5160 fps=371 q=-0.0 size=N/A time=00:03:35.21 bitrate=N/A speed=15.5x    frame= 5381 fps=373 q=-0.0 size=N/A time=00:03:44.43 bitrate=N/A speed=15.6x    frame= 5624 fps=376 q=-0.0 size=N/A time=00:03:54.56 bitrate=N/A speed=15.7x    frame= 5841 fps=378 q=-0.0 size=N/A time=00:04:03.61 bitrate=N/A speed=15.8x    frame= 6053 fps=379 q=-0.0 size=N/A time=00:04:12.46 bitrate=N/A speed=15.8x    frame= 6271 fps=380 q=-0.0 size=N/A time=00:04:21.55 bitrate=N/A speed=15.9x    frame= 6503 fps=382 q=-0.0 size=N/A time=00:04:31.22 bitrate=N/A speed=15.9x    frame= 6694 fps=382 q=-0.0 size=N/A time=00:04:39.19 bitrate=N/A speed=15.9x    frame= 6881 fps=381 q=-0.0 size=N/A time=00:04:46.99 bitrate=N/A speed=15.9x    frame= 7112 fps=383 q=-0.0 size=N/A time=00:04:56.62 bitrate=N/A speed=  16x    frame= 7330 fps=384 q=-0.0 size=N/A time=00:05:05.72 bitrate=N/A speed=  16x    frame= 7565 fps=386 q=-0.0 size=N/A time=00:05:15.52 bitrate=N/A speed=16.1x    frame= 7796 fps=388 q=-0.0 size=N/A time=00:05:25.15 bitrate=N/A speed=16.2x    frame= 7984 fps=387 q=-0.0 size=N/A time=00:05:32.99 bitrate=N/A speed=16.1x    frame= 8198 fps=388 q=-0.0 size=N/A time=00:05:41.92 bitrate=N/A speed=16.2x    frame= 8421 fps=389 q=-0.0 size=N/A time=00:05:51.22 bitrate=N/A speed=16.2x    frame= 8643 fps=390 q=-0.0 size=N/A time=00:06:00.48 bitrate=N/A speed=16.3x    frame= 8896 fps=392 q=-0.0 size=N/A time=00:06:11.03 bitrate=N/A speed=16.3x    frame= 9150 fps=394 q=-0.0 size=N/A time=00:06:21.63 bitrate=N/A speed=16.4x    frame= 9414 fps=397 q=-0.0 size=N/A time=00:06:32.64 bitrate=N/A speed=16.5x    frame= 9674 fps=399 q=-0.0 size=N/A time=00:06:43.48 bitrate=N/A speed=16.6x    frame= 9954 fps=402 q=-0.0 size=N/A time=00:06:55.16 bitrate=N/A speed=16.8x    frame=10199 fps=403 q=-0.0 size=N/A time=00:07:05.38 bitrate=N/A speed=16.8x    frame=10408 fps=403 q=-0.0 size=N/A time=00:07:14.10 bitrate=N/A speed=16.8x    frame=10620 fps=404 q=-0.0 size=N/A time=00:07:22.94 bitrate=N/A speed=16.8x    frame=10826 fps=403 q=-0.0 size=N/A time=00:07:31.53 bitrate=N/A speed=16.8x    frame=11072 fps=405 q=-0.0 size=N/A time=00:07:41.79 bitrate=N/A speed=16.9x    frame=11323 fps=406 q=-0.0 size=N/A time=00:07:52.26 bitrate=N/A speed=16.9x    frame=11600 fps=409 q=-0.0 size=N/A time=00:08:03.81 bitrate=N/A speed=  17x    frame=11852 fps=410 q=-0.0 size=N/A time=00:08:14.32 bitrate=N/A speed=17.1x    frame=12100 fps=411 q=-0.0 size=N/A time=00:08:24.67 bitrate=N/A speed=17.2x    frame=12348 fps=413 q=-0.0 size=N/A time=00:08:35.01 bitrate=N/A speed=17.2x    frame=12616 fps=414 q=-0.0 size=N/A time=00:08:46.19 bitrate=N/A speed=17.3x    frame=12876 fps=416 q=-0.0 size=N/A time=00:08:57.03 bitrate=N/A speed=17.3x    frame=13132 fps=417 q=-0.0 size=N/A time=00:09:07.71 bitrate=N/A speed=17.4x    frame=13333 fps=417 q=-0.0 size=N/A time=00:09:16.09 bitrate=N/A speed=17.4x    frame=13575 fps=418 q=-0.0 size=N/A time=00:09:26.19 bitrate=N/A speed=17.4x    frame=13820 fps=418 q=-0.0 size=N/A time=00:09:36.40 bitrate=N/A speed=17.5x    frame=14107 fps=420 q=-0.0 size=N/A time=00:09:48.37 bitrate=N/A speed=17.5x    frame=14350 fps=421 q=-0.0 size=N/A time=00:09:58.51 bitrate=N/A speed=17.6x    frame=14608 fps=422 q=-0.0 size=N/A time=00:10:09.27 bitrate=N/A speed=17.6x    frame=14863 fps=424 q=-0.0 size=N/A time=00:10:19.91 bitrate=N/A speed=17.7x    frame=15113 fps=424 q=-0.0 size=N/A time=00:10:30.33 bitrate=N/A speed=17.7x    frame=15347 fps=425 q=-0.0 size=N/A time=00:10:40.09 bitrate=N/A speed=17.7x    frame=15613 fps=426 q=-0.0 size=N/A time=00:10:51.19 bitrate=N/A speed=17.8x    frame=15871 fps=427 q=-0.0 size=N/A time=00:11:01.95 bitrate=N/A speed=17.8x    frame=16078 fps=427 q=-0.0 size=N/A time=00:11:10.58 bitrate=N/A speed=17.8x    frame=16287 fps=427 q=-0.0 size=N/A time=00:11:19.30 bitrate=N/A speed=17.8x    frame=16491 fps=426 q=-0.0 size=N/A time=00:11:27.81 bitrate=N/A speed=17.8x    frame=16711 fps=426 q=-0.0 size=N/A time=00:11:36.98 bitrate=N/A speed=17.8x    frame=16958 fps=427 q=-0.0 size=N/A time=00:11:47.28 bitrate=N/A speed=17.8x    frame=17198 fps=427 q=-0.0 size=N/A time=00:11:57.29 bitrate=N/A speed=17.8x    frame=17478 fps=429 q=-0.0 size=N/A time=00:12:08.97 bitrate=N/A speed=17.9x    frame=17747 fps=430 q=-0.0 size=N/A time=00:12:20.19 bitrate=N/A speed=17.9x    frame=18003 fps=431 q=-0.0 size=N/A time=00:12:30.87 bitrate=N/A speed=  18x    frame=18210 fps=430 q=-0.0 size=N/A time=00:12:39.50 bitrate=N/A speed=  18x    frame=18427 fps=430 q=-0.0 size=N/A time=00:12:48.55 bitrate=N/A speed=17.9x    frame=18634 fps=430 q=-0.0 size=N/A time=00:12:57.19 bitrate=N/A speed=17.9x    frame=18831 fps=429 q=-0.0 size=N/A time=00:13:05.40 bitrate=N/A speed=17.9x    frame=19084 fps=430 q=-0.0 size=N/A time=00:13:15.96 bitrate=N/A speed=17.9x    frame=19303 fps=430 q=-0.0 size=N/A time=00:13:25.09 bitrate=N/A speed=17.9x    frame=19492 fps=429 q=-0.0 size=N/A time=00:13:32.97 bitrate=N/A speed=17.9x    frame=19681 fps=429 q=-0.0 size=N/A time=00:13:40.86 bitrate=N/A speed=17.9x    frame=19903 fps=429 q=-0.0 size=N/A time=00:13:50.12 bitrate=N/A speed=17.9x    frame=20106 fps=428 q=-0.0 size=N/A time=00:13:58.58 bitrate=N/A speed=17.9x    frame=20294 fps=428 q=-0.0 size=N/A time=00:14:06.42 bitrate=N/A speed=17.8x    frame=20472 fps=427 q=-0.0 size=N/A time=00:14:13.85 bitrate=N/A speed=17.8x    frame=20658 fps=426 q=-0.0 size=N/A time=00:14:21.61 bitrate=N/A speed=17.8x    frame=20894 fps=426 q=-0.0 size=N/A time=00:14:31.45 bitrate=N/A speed=17.8x    frame=21100 fps=426 q=-0.0 size=N/A time=00:14:40.04 bitrate=N/A speed=17.8x    frame=21307 fps=426 q=-0.0 size=N/A time=00:14:48.67 bitrate=N/A speed=17.8x    frame=21487 fps=425 q=-0.0 size=N/A time=00:14:56.18 bitrate=N/A speed=17.7x    frame=21689 fps=425 q=-0.0 size=N/A time=00:15:04.61 bitrate=N/A speed=17.7x    frame=21907 fps=425 q=-0.0 size=N/A time=00:15:13.70 bitrate=N/A speed=17.7x    frame=22097 fps=424 q=-0.0 size=N/A time=00:15:21.62 bitrate=N/A speed=17.7x    frame=22279 fps=423 q=-0.0 size=N/A time=00:15:29.21 bitrate=N/A speed=17.7x    frame=22484 fps=423 q=-0.0 size=N/A time=00:15:37.77 bitrate=N/A speed=17.6x    frame=22682 fps=423 q=-0.0 size=N/A time=00:15:46.02 bitrate=N/A speed=17.6x    frame=22867 fps=422 q=-0.0 size=N/A time=00:15:53.74 bitrate=N/A speed=17.6x    frame=23053 fps=422 q=-0.0 size=N/A time=00:16:01.50 bitrate=N/A speed=17.6x    frame=23268 fps=422 q=-0.0 size=N/A time=00:16:10.46 bitrate=N/A speed=17.6x    frame=23496 fps=422 q=-0.0 size=N/A time=00:16:19.97 bitrate=N/A speed=17.6x    frame=23723 fps=422 q=-0.0 size=N/A time=00:16:29.44 bitrate=N/A speed=17.6x    frame=23972 fps=422 q=-0.0 size=N/A time=00:16:39.83 bitrate=N/A speed=17.6x    frame=24218 fps=423 q=-0.0 size=N/A time=00:16:50.09 bitrate=N/A speed=17.6x    frame=24463 fps=423 q=-0.0 size=N/A time=00:17:00.31 bitrate=N/A speed=17.7x    frame=24733 fps=424 q=-0.0 size=N/A time=00:17:11.57 bitrate=N/A speed=17.7x    frame=24995 fps=425 q=-0.0 size=N/A time=00:17:22.49 bitrate=N/A speed=17.7x    frame=25242 fps=426 q=-0.0 size=N/A time=00:17:32.80 bitrate=N/A speed=17.7x    frame=25481 fps=426 q=-0.0 size=N/A time=00:17:42.77 bitrate=N/A speed=17.8x    frame=25670 fps=425 q=-0.0 size=N/A time=00:17:50.65 bitrate=N/A speed=17.7x    frame=25842 fps=425 q=-0.0 size=N/A time=00:17:57.82 bitrate=N/A speed=17.7x    frame=26104 fps=425 q=-0.0 size=N/A time=00:18:08.75 bitrate=N/A speed=17.7x    frame=26362 fps=426 q=-0.0 size=N/A time=00:18:19.55 bitrate=N/A speed=17.8x    frame=26634 fps=427 q=-0.0 size=N/A time=00:18:30.85 bitrate=N/A speed=17.8x    frame=26856 fps=427 q=-0.0 size=N/A time=00:18:40.11 bitrate=N/A speed=17.8x    frame=27124 fps=427 q=-0.0 size=N/A time=00:18:51.29 bitrate=N/A speed=17.8x    frame=27339 fps=427 q=-0.0 size=N/A time=00:19:00.26 bitrate=N/A speed=17.8x    frame=27547 fps=427 q=-0.0 size=N/A time=00:19:08.93 bitrate=N/A speed=17.8x    frame=27745 fps=427 q=-0.0 size=N/A time=00:19:17.19 bitrate=N/A speed=17.8x    frame=27968 fps=427 q=-0.0 size=N/A time=00:19:26.49 bitrate=N/A speed=17.8x    frame=28201 fps=427 q=-0.0 size=N/A time=00:19:36.21 bitrate=N/A speed=17.8x    frame=28397 fps=427 q=-0.0 size=N/A time=00:19:44.39 bitrate=N/A speed=17.8x    frame=28598 fps=427 q=-0.0 size=N/A time=00:19:52.77 bitrate=N/A speed=17.8x    frame=28823 fps=427 q=-0.0 size=N/A time=00:20:02.15 bitrate=N/A speed=17.8x    frame=29046 fps=427 q=-0.0 size=N/A time=00:20:11.46 bitrate=N/A speed=17.8x    frame=29248 fps=426 q=-0.0 size=N/A time=00:20:19.88 bitrate=N/A speed=17.8x    frame=29415 fps=426 q=-0.0 size=N/A time=00:20:26.85 bitrate=N/A speed=17.8x    frame=29597 fps=425 q=-0.0 size=N/A time=00:20:34.44 bitrate=N/A speed=17.7x    frame=29757 fps=424 q=-0.0 size=N/A time=00:20:41.11 bitrate=N/A speed=17.7x    frame=29905 fps=423 q=-0.0 size=N/A time=00:20:47.28 bitrate=N/A speed=17.7x    frame=30081 fps=423 q=-0.0 size=N/A time=00:20:54.62 bitrate=N/A speed=17.6x    frame=30271 fps=422 q=-0.0 size=N/A time=00:21:02.55 bitrate=N/A speed=17.6x    frame=30436 fps=421 q=-0.0 size=N/A time=00:21:09.43 bitrate=N/A speed=17.6x    frame=30604 fps=421 q=-0.0 size=N/A time=00:21:16.44 bitrate=N/A speed=17.5x    frame=30776 fps=420 q=-0.0 size=N/A time=00:21:23.61 bitrate=N/A speed=17.5x    frame=30939 fps=419 q=-0.0 size=N/A time=00:21:30.41 bitrate=N/A speed=17.5x    frame=31124 fps=419 q=-0.0 size=N/A time=00:21:38.13 bitrate=N/A speed=17.5x    frame=31340 fps=419 q=-0.0 size=N/A time=00:21:47.13 bitrate=N/A speed=17.5x    frame=31535 fps=419 q=-0.0 size=N/A time=00:21:55.27 bitrate=N/A speed=17.5x    frame=31743 fps=419 q=-0.0 size=N/A time=00:22:03.94 bitrate=N/A speed=17.5x    frame=31984 fps=419 q=-0.0 size=N/A time=00:22:13.99 bitrate=N/A speed=17.5x    frame=32227 fps=419 q=-0.0 size=N/A time=00:22:24.13 bitrate=N/A speed=17.5x    frame=32435 fps=419 q=-0.0 size=N/A time=00:22:32.80 bitrate=N/A speed=17.5x    frame=32639 fps=419 q=-0.0 size=N/A time=00:22:41.31 bitrate=N/A speed=17.5x    frame=32857 fps=419 q=-0.0 size=N/A time=00:22:50.41 bitrate=N/A speed=17.5x    frame=33066 fps=419 q=-0.0 size=N/A time=00:22:59.12 bitrate=N/A speed=17.5x    frame=33276 fps=419 q=-0.0 size=N/A time=00:23:07.88 bitrate=N/A speed=17.5x    frame=33479 fps=419 q=-0.0 size=N/A time=00:23:16.35 bitrate=N/A speed=17.5x    frame=33635 fps=418 q=-0.0 size=N/A time=00:23:22.85 bitrate=N/A speed=17.4x    frame=33813 fps=418 q=-0.0 size=N/A time=00:23:30.28 bitrate=N/A speed=17.4x    frame=34009 fps=417 q=-0.0 size=N/A time=00:23:38.45 bitrate=N/A speed=17.4x    frame=34217 fps=417 q=-0.0 size=N/A time=00:23:47.13 bitrate=N/A speed=17.4x    frame=34426 fps=417 q=-0.0 size=N/A time=00:23:55.85 bitrate=N/A speed=17.4x    [Parsed_ssim_10 @ 000001c41ad78fc0] SSIM Y:0.993739 (22.033649) U:0.993527 (21.889131) V:0.993158 (21.648186) All:0.993607 (21.942931)
[out#0/null @ 000001c40ed4ec00] video:14858KiB audio:270440KiB subtitle:0KiB other streams:0KiB global headers:0KiB muxing overhead: unknown
frame=34579 fps=416 q=-0.0 Lsize=N/A time=00:24:02.23 bitrate=N/A speed=17.4x    
